<svg xmlns="http://www.w3.org/2000/svg" viewBox="0 0 260 160" width="260" height="160">
  <defs>
    <linearGradient id="bg" x1="0%" y1="0%" x2="100%" y2="100%">
      <stop offset="0%" style="stop-color:#003C71"/>
      <stop offset="100%" style="stop-color:#0071C5"/>
    </linearGradient>
  </defs>
  <rect width="260" height="160" fill="url(#bg)"/>
  <!-- Building -->
  <rect x="80" y="55" width="100" height="75" rx="2" fill="rgba(255,255,255,0.15)" stroke="rgba(255,255,255,0.4)" stroke-width="1.5"/>
  <!-- Windows -->
  <rect x="95" y="68" width="18" height="14" rx="1" fill="rgba(255,255,255,0.5)"/>
  <rect x="121" y="68" width="18" height="14" rx="1" fill="rgba(255,255,255,0.5)"/>
  <rect x="147" y="68" width="18" height="14" rx="1" fill="rgba(255,255,255,0.5)"/>
  <rect x="95" y="90" width="18" height="14" rx="1" fill="rgba(255,255,255,0.3)"/>
  <rect x="121" y="90" width="18" height="14" rx="1" fill="rgba(255,255,255,0.5)"/>
  <rect x="147" y="90" width="18" height="14" rx="1" fill="rgba(255,255,255,0.3)"/>
  <!-- Door -->
  <rect x="118" y="112" width="24" height="18" rx="1" fill="rgba(255,255,255,0.6)"/>
  <!-- Roof line -->
  <rect x="75" y="52" width="110" height="4" rx="1" fill="rgba(255,255,255,0.5)"/>
  <!-- Flag pole -->
  <rect x="130" y="28" width="2" height="26" fill="rgba(255,255,255,0.7)"/>
  <rect x="132" y="28" width="16" height="10" rx="1" fill="#00AEEF"/>
  <!-- Label -->
  <text x="130" y="148" font-family="Arial,sans-serif" font-size="11" fill="rgba(255,255,255,0.7)" text-anchor="middle" font-weight="bold">1968 · Intel Corporation Founded</text>
</svg>
