<svg xmlns="http://www.w3.org/2000/svg" viewBox="0 0 260 160" width="260" height="160">
  <defs>
    <linearGradient id="bg2" x1="0%" y1="0%" x2="100%" y2="100%">
      <stop offset="0%" style="stop-color:#1a1a2e"/>
      <stop offset="100%" style="stop-color:#0071C5"/>
    </linearGradient>
  </defs>
  <rect width="260" height="160" fill="url(#bg2)"/>
  <!-- Chip body -->
  <rect x="85" y="40" width="90" height="80" rx="4" fill="rgba(255,255,255,0.12)" stroke="#00AEEF" stroke-width="2"/>
  <rect x="93" y="48" width="74" height="64" rx="2" fill="rgba(0,174,239,0.15)" stroke="rgba(0,174,239,0.4)" stroke-width="1"/>
  <!-- Internal grid -->
  <line x1="115" y1="48" x2="115" y2="112" stroke="rgba(0,174,239,0.3)" stroke-width="0.8"/>
  <line x1="130" y1="48" x2="130" y2="112" stroke="rgba(0,174,239,0.3)" stroke-width="0.8"/>
  <line x1="145" y1="48" x2="145" y2="112" stroke="rgba(0,174,239,0.3)" stroke-width="0.8"/>
  <line x1="93" y1="70" x2="167" y2="70" stroke="rgba(0,174,239,0.3)" stroke-width="0.8"/>
  <line x1="93" y1="90" x2="167" y2="90" stroke="rgba(0,174,239,0.3)" stroke-width="0.8"/>
  <!-- Pins left -->
  <rect x="70" y="53" width="16" height="4" rx="1" fill="#00AEEF"/>
  <rect x="70" y="63" width="16" height="4" rx="1" fill="#00AEEF"/>
  <rect x="70" y="73" width="16" height="4" rx="1" fill="#00AEEF"/>
  <rect x="70" y="83" width="16" height="4" rx="1" fill="#00AEEF"/>
  <rect x="70" y="93" width="16" height="4" rx="1" fill="#00AEEF"/>
  <rect x="70" y="103" width="16" height="4" rx="1" fill="#00AEEF"/>
  <!-- Pins right -->
  <rect x="174" y="53" width="16" height="4" rx="1" fill="#00AEEF"/>
  <rect x="174" y="63" width="16" height="4" rx="1" fill="#00AEEF"/>
  <rect x="174" y="73" width="16" height="4" rx="1" fill="#00AEEF"/>
  <rect x="174" y="83" width="16" height="4" rx="1" fill="#00AEEF"/>
  <rect x="174" y="93" width="16" height="4" rx="1" fill="#00AEEF"/>
  <rect x="174" y="103" width="16" height="4" rx="1" fill="#00AEEF"/>
  <text x="130" y="85" font-family="Arial,sans-serif" font-size="9" fill="rgba(0,174,239,0.9)" text-anchor="middle" font-weight="bold">Intel 4004</text>
  <text x="130" y="148" font-family="Arial,sans-serif" font-size="11" fill="rgba(255,255,255,0.7)" text-anchor="middle" font-weight="bold">1971 · World's First Microprocessor</text>
</svg>
