<svg xmlns="http://www.w3.org/2000/svg" viewBox="0 0 260 160" width="260" height="160">
  <defs>
    <linearGradient id="bg5" x1="0%" y1="0%" x2="100%" y2="100%">
      <stop offset="0%" style="stop-color:#2a1a00"/>
      <stop offset="100%" style="stop-color:#6b3a00"/>
    </linearGradient>
  </defs>
  <rect width="260" height="160" fill="url(#bg5)"/>
  <!-- Factory building -->
  <rect x="60" y="80" width="140" height="55" rx="2" fill="rgba(255,255,255,0.12)" stroke="rgba(255,200,100,0.4)" stroke-width="1.5"/>
  <!-- Chimneys -->
  <rect x="80" y="50" width="18" height="32" rx="2" fill="rgba(255,255,255,0.15)" stroke="rgba(255,200,100,0.4)" stroke-width="1"/>
  <rect x="110" y="42" width="18" height="40" rx="2" fill="rgba(255,255,255,0.15)" stroke="rgba(255,200,100,0.4)" stroke-width="1"/>
  <rect x="160" y="55" width="18" height="27" rx="2" fill="rgba(255,255,255,0.15)" stroke="rgba(255,200,100,0.4)" stroke-width="1"/>
  <!-- Smoke clouds -->
  <ellipse cx="89" cy="42" rx="12" ry="8" fill="rgba(180,160,130,0.5)"/>
  <ellipse cx="96" cy="36" rx="10" ry="7" fill="rgba(160,140,110,0.4)"/>
  <ellipse cx="85" cy="32" rx="9" ry="6" fill="rgba(140,120,90,0.35)"/>
  <ellipse cx="119" cy="33" rx="12" ry="8" fill="rgba(180,160,130,0.5)"/>
  <ellipse cx="126" cy="27" rx="10" ry="7" fill="rgba(160,140,110,0.4)"/>
  <ellipse cx="113" cy="23" rx="9" ry="6" fill="rgba(140,120,90,0.35)"/>
  <ellipse cx="169" cy="47" rx="11" ry="7" fill="rgba(180,160,130,0.5)"/>
  <ellipse cx="175" cy="41" rx="9" ry="6" fill="rgba(160,140,110,0.4)"/>
  <!-- Warning badge -->
  <rect x="100" y="86" width="60" height="22" rx="4" fill="rgba(220,100,0,0.7)"/>
  <text x="130" y="101" font-family="Arial,sans-serif" font-size="9.5" fill="white" text-anchor="middle" font-weight="bold">PEAK EMISSIONS</text>
  <text x="130" y="148" font-family="Arial,sans-serif" font-size="11" fill="rgba(255,220,150,0.8)" text-anchor="middle" font-weight="bold">2006 · Turning Point for Change</text>
</svg>
