<svg xmlns="http://www.w3.org/2000/svg" viewBox="0 0 260 160" width="260" height="160">
  <defs>
    <linearGradient id="bg8" x1="0%" y1="100%" x2="0%" y2="0%">
      <stop offset="0%" style="stop-color:#1a3a00"/>
      <stop offset="50%" style="stop-color:#0d5c14"/>
      <stop offset="100%" style="stop-color:#1a6b8a"/>
    </linearGradient>
    <radialGradient id="sun" cx="50%" cy="50%" r="50%">
      <stop offset="0%" style="stop-color:#FFE066"/>
      <stop offset="100%" style="stop-color:#FF9900"/>
    </radialGradient>
  </defs>
  <rect width="260" height="160" fill="url(#bg8)"/>
  <!-- Sun -->
  <circle cx="130" cy="42" r="20" fill="url(#sun)"/>
  <!-- Sun rays -->
  <line x1="130" y1="14" x2="130" y2="8" stroke="#FFD700" stroke-width="2.5" stroke-linecap="round"/>
  <line x1="154" y1="20" x2="158" y2="15" stroke="#FFD700" stroke-width="2.5" stroke-linecap="round"/>
  <line x1="164" y1="42" x2="170" y2="42" stroke="#FFD700" stroke-width="2.5" stroke-linecap="round"/>
  <line x1="154" y1="64" x2="158" y2="69" stroke="#FFD700" stroke-width="2.5" stroke-linecap="round"/>
  <line x1="106" y1="20" x2="102" y2="15" stroke="#FFD700" stroke-width="2.5" stroke-linecap="round"/>
  <line x1="96" y1="42" x2="90" y2="42" stroke="#FFD700" stroke-width="2.5" stroke-linecap="round"/>
  <line x1="106" y1="64" x2="102" y2="69" stroke="#FFD700" stroke-width="2.5" stroke-linecap="round"/>
  <!-- Solar panels -->
  <g transform="translate(50, 88)">
    <!-- Panel 1 -->
    <rect x="0" y="0" width="48" height="30" rx="2" fill="rgba(0,80,140,0.9)" stroke="rgba(100,200,255,0.5)" stroke-width="1"/>
    <line x1="16" y1="0" x2="16" y2="30" stroke="rgba(100,200,255,0.4)" stroke-width="0.8"/>
    <line x1="32" y1="0" x2="32" y2="30" stroke="rgba(100,200,255,0.4)" stroke-width="0.8"/>
    <line x1="0" y1="10" x2="48" y2="10" stroke="rgba(100,200,255,0.4)" stroke-width="0.8"/>
    <line x1="0" y1="20" x2="48" y2="20" stroke="rgba(100,200,255,0.4)" stroke-width="0.8"/>
    <!-- Panel 2 -->
    <rect x="58" y="0" width="48" height="30" rx="2" fill="rgba(0,80,140,0.9)" stroke="rgba(100,200,255,0.5)" stroke-width="1"/>
    <line x1="74" y1="0" x2="74" y2="30" stroke="rgba(100,200,255,0.4)" stroke-width="0.8"/>
    <line x1="90" y1="0" x2="90" y2="30" stroke="rgba(100,200,255,0.4)" stroke-width="0.8"/>
    <line x1="58" y1="10" x2="106" y2="10" stroke="rgba(100,200,255,0.4)" stroke-width="0.8"/>
    <line x1="58" y1="20" x2="106" y2="20" stroke="rgba(100,200,255,0.4)" stroke-width="0.8"/>
    <!-- Panel 3 -->
    <rect x="116" y="0" width="48" height="30" rx="2" fill="rgba(0,80,140,0.9)" stroke="rgba(100,200,255,0.5)" stroke-width="1"/>
    <line x1="132" y1="0" x2="132" y2="30" stroke="rgba(100,200,255,0.4)" stroke-width="0.8"/>
    <line x1="148" y1="0" x2="148" y2="30" stroke="rgba(100,200,255,0.4)" stroke-width="0.8"/>
    <line x1="116" y1="10" x2="164" y2="10" stroke="rgba(100,200,255,0.4)" stroke-width="0.8"/>
    <line x1="116" y1="20" x2="164" y2="20" stroke="rgba(100,200,255,0.4)" stroke-width="0.8"/>
  </g>
  <!-- 99% badge -->
  <rect x="96" y="126" width="68" height="20" rx="6" fill="rgba(59,181,74,0.9)"/>
  <text x="130" y="140" font-family="Arial,sans-serif" font-size="10" fill="white" text-anchor="middle" font-weight="bold">99% Renewable ⚡</text>
  <text x="130" y="12" font-family="Arial,sans-serif" font-size="0" fill="transparent" text-anchor="middle"/>
</svg>
